<svg width="43" height="40" viewBox="0 0 43 40" fill="none" xmlns="http://www.w3.org/2000/svg">
<ellipse cx="21.5557" cy="19.9635" rx="20.5557" ry="19.2552" fill="#E0E0E0" stroke="#357AFF"/>
<path d="M30.8057 14.0123C30.8057 12.5706 29.4477 11.2986 27.9087 11.2986H16.2303C14.6913 11.2986 13.3334 12.5706 13.3334 14.0123V24.9518C13.3334 26.3935 14.6913 27.6655 16.2303 27.6655H22.1148V21.4749H19.9421V18.7612H22.1148V17.6588C22.1148 15.7931 23.5633 14.1819 25.3739 14.1819H27.7277V16.8956H25.3739C25.1023 16.8956 24.8307 17.15 24.8307 17.6588V18.7612H27.7277V21.4749H24.8307V27.6655H27.9087C29.4477 27.6655 30.8057 26.3935 30.8057 24.9518V14.0123Z" fill="black"/>
</svg>
