<svg width="43" height="40" viewBox="0 0 43 40" fill="none" xmlns="http://www.w3.org/2000/svg">
<ellipse cx="21.1852" cy="19.9635" rx="20.5557" ry="19.2552" fill="#E0E0E0" stroke="#357AFF"/>
<path d="M27.9488 12.2612H15.4494C14.0382 12.2612 12.9629 13.2684 12.9629 14.5904V26.299C12.9629 27.621 14.0382 28.6282 15.4494 28.6282H27.9488C29.36 28.6282 30.4352 27.621 30.4352 26.299V14.5904C30.4352 13.2684 29.36 12.2612 27.9488 12.2612ZM21.6991 25.3548C24.5887 25.3548 26.9408 23.2145 26.9408 20.6336C26.9408 20.1929 26.8736 19.6893 26.7392 19.3116H28.2176V25.9843C28.2176 26.299 27.9488 26.6138 27.5456 26.6138H15.8526C15.5166 26.6138 15.1806 26.362 15.1806 25.9843V19.2487H16.7262C16.5918 19.6893 16.5246 20.13 16.5246 20.5706C16.4574 23.2145 18.8094 25.3548 21.6991 25.3548ZM21.6991 23.4663C19.8175 23.4663 18.339 22.0814 18.339 20.3818C18.339 18.6821 19.8175 17.2972 21.6991 17.2972C23.5807 17.2972 25.0591 18.6821 25.0591 20.3818C25.0591 22.1444 23.5807 23.4663 21.6991 23.4663ZM28.1504 16.7307C28.1504 17.1084 27.8144 17.4231 27.4112 17.4231H25.5296C25.1263 17.4231 24.7903 17.1084 24.7903 16.7307V15.031C24.7903 14.6533 25.1263 14.3386 25.5296 14.3386H27.4112C27.8144 14.3386 28.1504 14.6533 28.1504 15.031V16.7307Z" fill="black"/>
</svg>
