<svg width="43" height="40" viewBox="0 0 43 40" fill="none" xmlns="http://www.w3.org/2000/svg">
<ellipse cx="21.4444" cy="19.9635" rx="20.5557" ry="19.2552" fill="#E0E0E0" stroke="#357AFF"/>
<path d="M29.5914 12.3215C27.5609 10.4261 24.8536 9.37305 21.9959 9.37305C16.0548 9.37305 11.2417 13.8659 11.2417 19.4118C11.2417 21.1669 11.7682 22.9219 12.6706 24.3961L11.1665 29.591L16.882 28.187C18.4613 28.9592 20.191 29.3804 21.9959 29.3804C27.9369 29.3804 32.75 24.8876 32.75 19.3416C32.6748 16.7442 31.6219 14.2169 29.5914 12.3215ZM27.1849 22.9921C26.9593 23.5537 25.9064 24.1153 25.38 24.1855C24.9288 24.2557 24.3272 24.2557 23.7255 24.1153C23.3495 23.9749 22.8231 23.8345 22.2215 23.5537C19.5141 22.5007 17.7845 19.9735 17.634 19.7629C17.4836 19.6224 16.506 18.429 16.506 17.1654C16.506 15.9018 17.1828 15.3402 17.4084 15.0594C17.634 14.7786 17.9349 14.7786 18.1605 14.7786C18.3109 14.7786 18.5365 14.7786 18.6869 14.7786C18.8373 14.7786 19.0629 14.7084 19.2885 15.1998C19.5141 15.6912 20.0406 16.9548 20.1158 17.025C20.191 17.1654 20.191 17.3058 20.1158 17.4462C20.0406 17.5866 19.9654 17.727 19.8149 17.8674C19.6645 18.0078 19.5141 18.2184 19.4389 18.2886C19.2885 18.429 19.1381 18.5694 19.2885 18.78C19.4389 19.0608 19.9654 19.8331 20.7926 20.5351C21.8454 21.3775 22.6727 21.6583 22.9735 21.7987C23.2743 21.9391 23.4247 21.8689 23.5751 21.7285C23.7255 21.5881 24.252 21.0265 24.4024 20.7457C24.5528 20.4649 24.7784 20.5351 25.004 20.6053C25.2296 20.6755 26.5833 21.3073 26.8089 21.4477C27.1097 21.5881 27.2601 21.6583 27.3353 21.7285C27.4105 21.9391 27.4105 22.4305 27.1849 22.9921Z" fill="black"/>
</svg>
