<svg width="43" height="40" viewBox="0 0 43 40" fill="none" xmlns="http://www.w3.org/2000/svg">
<ellipse cx="21.8148" cy="19.9635" rx="20.5557" ry="19.2552" fill="#E0E0E0" stroke="#357AFF"/>
<path d="M30.77 18.9171C30.77 18.5436 30.7036 18.108 30.7036 17.61C30.6371 17.1121 30.5707 16.6142 30.5042 16.1785C30.3713 15.6806 30.172 15.3072 29.7733 14.996C29.4411 14.6848 28.976 14.4981 28.5109 14.4358C26.9828 14.2491 24.7237 14.1869 21.6674 14.1869C18.611 14.1869 16.2855 14.2491 14.8238 14.4358C14.3587 14.4981 13.8936 14.6848 13.5614 14.996C13.2292 15.3072 12.9634 15.6806 12.8305 16.1785C12.6976 16.6142 12.6312 17.0499 12.6312 17.61C12.5647 18.108 12.5647 18.5436 12.5647 18.9171C12.5647 19.2905 12.5647 19.7262 12.5647 20.3486C12.5647 20.971 12.5647 21.4689 12.5647 21.7801C12.5647 22.1535 12.6312 22.5892 12.6312 23.0871C12.6976 23.585 12.7641 24.0829 12.8305 24.5186C12.9634 25.0165 13.1627 25.3899 13.5614 25.7011C13.8936 26.0123 14.3587 26.199 14.8238 26.2613C16.3519 26.448 18.611 26.5102 21.6674 26.5102C24.7237 26.5102 27.0492 26.448 28.5109 26.2613C28.976 26.199 29.4411 26.0123 29.7733 25.7011C30.1056 25.3899 30.3713 25.0165 30.5042 24.5186C30.6371 24.0829 30.7036 23.6472 30.7036 23.0871C30.77 22.5892 30.77 22.1535 30.77 21.7801C30.77 21.4066 30.77 20.971 30.77 20.3486C30.77 19.7262 30.77 19.2283 30.77 18.9171ZM25.1888 20.8465L19.9399 23.8962C19.8734 23.9584 19.7405 24.0207 19.6076 24.0207C19.4748 24.0207 19.4083 24.0207 19.2754 23.9584C19.0761 23.834 18.9432 23.6472 18.9432 23.3983V17.2366C18.9432 16.9876 19.0761 16.8009 19.2754 16.6765C19.4748 16.552 19.7405 16.552 19.9399 16.6765L25.1888 19.7262C25.3881 19.8506 25.521 20.0374 25.521 20.2241C25.521 20.4108 25.3881 20.722 25.1888 20.8465Z" fill="black"/>
</svg>
