<svg width="200" height="201" viewBox="0 0 200 201" fill="none" xmlns="http://www.w3.org/2000/svg">
<path fill-rule="evenodd" clip-rule="evenodd" d="M197.54 122.56C198.213 119.582 198.753 116.554 199.154 113.482L86.9355 1.26323C83.8634 1.66407 80.8351 2.20435 77.8572 2.87751L197.54 122.56ZM76.7096 3.14409C73.888 3.8172 71.1127 4.60989 68.3895 5.51651L194.901 132.028C195.808 129.305 196.6 126.53 197.273 123.708L76.7096 3.14409ZM199.228 87.9276C198.664 83.4038 197.798 78.9738 196.651 74.6585L125.759 3.76655C121.444 2.61941 117.014 1.75361 112.49 1.18996L199.228 87.9276ZM110.889 1.0036C107.313 0.616277 103.68 0.417542 100 0.417542C99.8705 0.417542 99.741 0.417788 99.6115 0.41828L199.999 100.806L200 100.681C200 100.593 200 100.505 200 100.418C200 96.7379 199.801 93.1048 199.414 89.5282L110.889 1.0036ZM199.31 112.224C199.698 108.931 199.925 105.588 199.984 102.205L98.2122 0.433201C94.8291 0.492511 91.4869 0.71983 88.1937 1.10717L199.31 112.224ZM191.528 140.762C192.635 138.255 193.641 135.694 194.543 133.084L67.3335 5.8747C64.7237 6.77631 62.1628 7.78294 59.6559 8.88953L191.528 140.762ZM50.6617 13.4164C48.4066 14.6979 46.2063 16.0647 44.065 17.5122L182.905 156.352C184.353 154.211 185.72 152.011 187.001 149.756L50.6617 13.4164ZM51.5674 12.9078C53.8832 11.6234 56.2553 10.4283 58.6792 9.32699L191.091 141.738C189.989 144.162 188.794 146.534 187.51 148.85L51.5674 12.9078ZM196.11 72.703C194.338 66.5485 191.992 60.6377 189.132 55.0324L145.385 11.2859C139.78 8.42603 133.869 6.07936 127.715 4.30784L196.11 72.703ZM29.9638 29.0387C28.572 30.4045 27.2199 31.8108 25.9094 33.2555L167.162 174.508C168.607 173.198 170.013 171.846 171.379 170.454L29.9638 29.0387ZM30.6811 28.3418C32.5002 26.5918 34.3854 24.9101 36.3326 23.3007L177.117 164.085C175.507 166.032 173.826 167.917 172.076 169.736L30.6811 28.3418ZM37.1104 22.6643C39.0877 21.063 41.1273 19.5356 43.225 18.0863L182.331 157.193C180.882 159.29 179.355 161.33 177.753 163.307L37.1104 22.6643ZM187.524 52.0103C178.421 35.5872 164.83 21.9964 148.407 12.8938L187.524 52.0103ZM100 200.417C102.248 200.417 104.479 200.343 106.69 200.197L0.220222 93.7277C0.0741787 95.9388 0 98.1695 0 100.418C0 101.709 0.0244638 102.994 0.0729532 104.273L96.1446 200.345C97.4237 200.393 98.709 200.417 100 200.417ZM1.50801 117.815C0.815882 113.869 0.355036 109.844 0.139963 105.754L94.6634 200.278C90.5732 200.062 86.5481 199.602 82.6027 198.909L1.50801 117.815ZM0.315992 92.4093L108.008 200.101C111.214 199.847 114.378 199.442 117.492 198.893L1.52469 82.9254C0.975322 86.0394 0.570044 89.203 0.315992 92.4093ZM1.8281 119.549C2.80909 124.612 4.17207 129.54 5.88585 134.299L66.1182 194.532C70.8779 196.245 75.805 197.608 80.8684 198.589L1.8281 119.549ZM6.73021 136.558C10.1212 145.303 14.7067 153.453 20.2865 160.807L39.6108 180.131C46.9646 185.711 55.1143 190.296 63.8596 193.687L6.73021 136.558ZM1.74318 81.7297L118.688 198.674C121.619 198.12 124.505 197.438 127.34 196.634L3.78333 73.0773C2.97936 75.9122 2.2973 78.7983 1.74318 81.7297ZM4.10111 71.9809L128.437 196.316C131.14 195.516 133.796 194.604 136.399 193.586L6.831 64.0183C5.81334 66.6212 4.90161 69.2772 4.10111 71.9809ZM7.23311 63.0062L137.411 193.184C139.913 192.174 142.365 191.066 144.762 189.864L10.56 55.642C9.35556 58.0431 8.24501 60.4995 7.23311 63.0062ZM11.0365 54.7043L145.7 189.388C148.036 188.185 150.319 186.894 152.543 185.517L14.9003 47.874C13.5264 50.0945 12.237 52.3728 11.0365 54.7043ZM15.4447 47.0042L153.413 184.973C155.582 183.6 157.695 182.145 159.747 180.614L19.8034 40.6704C18.2722 42.7223 16.8179 44.835 15.4447 47.0042ZM20.4113 39.8641L160.553 180.006C162.569 178.47 164.525 176.859 166.417 175.177L25.2403 34.0006C23.5586 35.8923 21.9475 37.8481 20.4113 39.8641Z" fill="url(#paint0_linear_23_277)" fill-opacity="0.5"/>
<defs>
<linearGradient id="paint0_linear_23_277" x1="54.3919" y1="31.8365" x2="138.851" y2="172.377" gradientUnits="userSpaceOnUse">
<stop stop-color="#357AFF"/>
<stop offset="0.499691" stop-color="#FE6550"/>
<stop offset="0.979167" stop-color="#383838"/>
</linearGradient>
</defs>
</svg>
